<svg width="19" height="11" viewBox="0 0 19 11" fill="none" xmlns="http://www.w3.org/2000/svg">
<path fill-rule="evenodd" clip-rule="evenodd" d="M17.8824 0H16.7647C16.1475 0 15.6471 0.45325 15.6471 1.01236V9.78616C15.6471 10.3453 16.1475 10.7985 16.7647 10.7985H17.8824C18.4996 10.7985 19 10.3453 19 9.78616V1.01236C19 0.45325 18.4996 0 17.8824 0ZM11.549 2.36218H12.6667C13.2839 2.36218 13.7843 2.81543 13.7843 3.37454V9.78616C13.7843 10.3453 13.2839 10.7985 12.6667 10.7985H11.549C10.9318 10.7985 10.4314 10.3453 10.4314 9.78616V3.37454C10.4314 2.81543 10.9318 2.36218 11.549 2.36218ZM7.45099 4.72435H6.33334C5.71608 4.72435 5.21569 5.1776 5.21569 5.73671V9.78616C5.21569 10.3453 5.71608 10.7985 6.33334 10.7985H7.45099C8.06826 10.7985 8.56865 10.3453 8.56865 9.78616V5.73671C8.56865 5.1776 8.06826 4.72435 7.45099 4.72435ZM2.2353 6.74907H1.11765C0.500389 6.74907 0 7.20232 0 7.76144V9.78616C0 10.3453 0.500389 10.7985 1.11765 10.7985H2.2353C2.85256 10.7985 3.35295 10.3453 3.35295 9.78616V7.76144C3.35295 7.20232 2.85256 6.74907 2.2353 6.74907Z" fill="white"/>
</svg>
