<svg width="17" height="11" viewBox="0 0 17 11" fill="none" xmlns="http://www.w3.org/2000/svg">
<path fill-rule="evenodd" clip-rule="evenodd" d="M8.46444 2.28448C10.9205 2.28457 13.2827 3.13869 15.0628 4.67028C15.1968 4.78852 15.4111 4.78703 15.5431 4.66693L16.8244 3.4966C16.8912 3.43569 16.9285 3.35318 16.9279 3.26733C16.9274 3.18148 16.8891 3.09937 16.8214 3.03917C12.1494 -1.01306 4.77874 -1.01306 0.106709 3.03917C0.0390312 3.09933 0.00063179 3.18141 7.72643e-06 3.26726C-0.000616337 3.35311 0.0365864 3.43565 0.103384 3.4966L1.38507 4.66693C1.517 4.78721 1.73141 4.7887 1.86537 4.67028C3.64564 3.13858 6.00809 2.28447 8.46444 2.28448ZM8.46442 6.09206C9.81389 6.09199 11.1152 6.54594 12.1155 7.36571C12.2508 7.48206 12.4639 7.47954 12.5958 7.36003L13.8756 6.1897C13.943 6.12831 13.9804 6.04504 13.9795 5.9585C13.9785 5.87196 13.9392 5.78939 13.8705 5.72926C10.8244 3.16485 6.10706 3.16485 3.06095 5.72926C2.99214 5.78939 2.95288 5.87201 2.95198 5.95857C2.95108 6.04513 2.98861 6.1284 3.05615 6.1897L4.33561 7.36003C4.4675 7.47954 4.68063 7.48206 4.81592 7.36571C5.81556 6.54648 7.11584 6.09257 8.46442 6.09206ZM11.0282 8.6539C11.0301 8.74068 10.9924 8.82434 10.924 8.88514L8.71012 10.9071C8.64522 10.9666 8.55674 11 8.46442 11C8.3721 11 8.28362 10.9666 8.21872 10.9071L6.0045 8.88514C5.9361 8.8243 5.89847 8.7406 5.9005 8.65383C5.90253 8.56705 5.94403 8.48487 6.01522 8.4267C7.42907 7.34443 9.49978 7.34443 10.9136 8.4267C10.9848 8.48492 11.0262 8.56712 11.0282 8.6539Z" fill="white"/>
</svg>
